# 3ds Max Wavefront OBJ Exporter v0.97b - (c)2007 guruware
# File Created: 12.06.2013 15:49:33

#
# object Box001
#

v  -5.2281 -0.8310 3.5789
v  -4.6961 0.0538 5.8635
v  -7.2791 0.8107 5.0155
v  -8.4382 0.1415 3.2302
v  -0.4674 -1.2379 3.7017
v  -0.5778 -0.3289 6.1309
v  3.5940 0.0519 5.4676
v  4.3222 -0.7310 3.1706
v  6.3737 0.5087 4.5579
v  7.7724 -0.0451 2.7356
v  -5.7066 -1.2378 0.1521
v  -9.0399 -0.0701 0.1922
v  -0.4739 -1.5711 0.0705
v  4.8991 -1.0092 -0.0655
v  8.6818 -0.2498 -0.1737
v  -8.7527 0.1180 -2.8765
v  -5.6060 -0.8554 -3.3094
v  -0.6810 -1.1582 -3.5909
v  4.5383 -0.7949 -3.3745
v  8.2607 0.2063 -3.0184
v  -7.8773 0.7434 -4.8073
v  -5.3329 0.0697 -5.6588
v  -0.9642 -0.0689 -5.9412
v  3.8423 0.0838 -5.6532
v  7.1395 0.5745 -4.9538
v  -5.1470 8.8592 3.4237
v  -8.3320 7.7512 3.0978
v  -7.2387 7.0991 4.8739
v  -4.6063 7.6975 5.5288
v  -0.4714 9.4579 3.6059
v  -0.5663 8.0435 5.7615
v  3.5061 7.8842 5.2720
v  4.3049 8.9668 3.1200
v  6.2909 7.3665 4.3937
v  7.6086 7.9371 2.5846
v  -5.6968 9.6214 0.1578
v  -8.9722 8.1599 0.1949
v  -0.4703 10.0883 0.0534
v  4.9052 9.5415 -0.0534
v  8.6253 8.2909 -0.1515
v  -8.6855 7.9139 -2.8674
v  -5.5926 9.2160 -3.3128
v  -0.6674 9.4879 -3.5127
v  4.5383 9.1381 -3.3558
v  8.2002 7.9390 -3.0186
v  -8.0173 7.6076 -4.9774
v  -5.3489 8.0742 -5.6341
v  -0.9318 8.1538 -5.8848
v  3.8311 8.0443 -5.6433
v  7.1137 7.4749 -4.8890
v  -5.1615 1.6815 7.1535
v  -8.2610 2.1131 5.7447
v  -0.7134 1.4331 7.4429
v  3.7939 1.5911 6.6156
v  7.0863 1.9397 4.9517
v  -5.4267 3.8127 7.1861
v  -8.7889 3.9222 5.9485
v  -0.7814 3.9285 8.2734
v  4.0192 3.9961 7.1279
v  7.5966 4.0349 5.4267
v  -8.1723 5.8284 5.5331
v  -5.0458 6.0664 6.6113
v  -0.7041 6.3332 7.2581
v  3.7940 6.3563 6.5531
v  7.2455 6.2088 5.2029
v  9.6696 1.5488 2.9408
v  10.7592 1.6092 -0.2955
v  10.5005 1.6013 -3.4031
v  8.2393 1.9616 -5.5493
v  10.1253 3.9744 2.8870
v  11.7213 3.8133 -0.3489
v  11.1328 4.0222 -3.4492
v  8.8370 4.0494 -5.9410
v  9.4148 6.2521 2.7263
v  10.7006 6.3136 -0.2652
v  10.3695 6.1784 -3.3601
v  8.2839 6.1240 -5.6163
v  4.2379 1.6638 -6.9638
v  -1.1709 1.4993 -7.4782
v  -6.0010 1.5701 -7.1066
v  -8.8428 2.0287 -5.5070
v  4.5723 3.9637 -7.4649
v  -1.2471 3.9275 -8.2734
v  -6.3315 3.9802 -7.4025
v  -9.2113 3.9718 -5.8077
v  4.2793 6.3442 -6.9908
v  -1.1499 6.4808 -7.5748
v  -5.9554 6.3379 -6.9674
v  -8.8048 6.1165 -5.5328
v  -10.4862 1.7208 -3.1702
v  -11.1032 1.5309 0.1934
v  -10.3794 1.6738 3.6114
v  -11.2601 3.9879 -3.4210
v  -11.7213 3.9312 0.1806
v  -10.7079 3.8542 3.6189
v  -10.4892 6.3070 -3.1623
v  -11.1190 6.4403 0.1943
v  -9.9468 6.0684 3.3316
# 98 vertices

vn -0.2107 -0.9388 0.2725
vn -0.2398 -0.7776 0.5813
vn -0.3976 -0.7238 0.5640
vn -0.4374 -0.8313 0.3430
vn 0.0196 -0.9720 0.2342
vn 0.0305 -0.8006 0.5984
vn 0.2481 -0.7573 0.6042
vn 0.1778 -0.9516 0.2509
vn 0.3920 -0.6708 0.6296
vn 0.4183 -0.8278 0.3739
vn -0.1960 -0.9806 0.0102
vn -0.4775 -0.8784 0.0187
vn 0.0146 -0.9999 -0.0000
vn 0.1593 -0.9872 -0.0020
vn 0.4308 -0.9022 0.0229
vn -0.4739 -0.8330 -0.2856
vn -0.2014 -0.9454 -0.2561
vn 0.0053 -0.9672 -0.2540
vn 0.1599 -0.9538 -0.2544
vn 0.3917 -0.8719 -0.2939
vn -0.4395 -0.7510 -0.4928
vn -0.2269 -0.8137 -0.5352
vn 0.0031 -0.8200 -0.5723
vn 0.1730 -0.7969 -0.5788
vn 0.3355 -0.7636 -0.5517
vn -0.2323 0.8964 0.3774
vn -0.4784 0.7808 0.4019
vn -0.3996 0.6873 0.6065
vn -0.2224 0.7274 0.6492
vn 0.0018 0.9307 0.3658
vn -0.0022 0.7560 0.6546
vn 0.2200 0.7526 0.6207
vn 0.2218 0.9035 0.3667
vn 0.3878 0.7229 0.5719
vn 0.4630 0.7903 0.4013
vn -0.2450 0.9682 0.0498
vn -0.5251 0.8481 0.0708
vn 0.0032 0.9997 0.0258
vn 0.2123 0.9768 0.0283
vn 0.5043 0.8611 0.0640
vn -0.5150 0.8170 -0.2593
vn -0.2229 0.9352 -0.2753
vn 0.0030 0.9500 -0.3122
vn 0.1900 0.9313 -0.3109
vn 0.4516 0.8352 -0.3140
vn -0.4575 0.7243 -0.5158
vn -0.2136 0.7775 -0.5915
vn -0.0013 0.7900 -0.6130
vn 0.1789 0.7757 -0.6053
vn 0.3646 0.7462 -0.5571
vn -0.2686 -0.4154 0.8691
vn -0.5128 -0.4358 0.7397
vn 0.0342 -0.4310 0.9017
vn 0.3077 -0.4163 0.8556
vn 0.5018 -0.3936 0.7702
vn -0.2727 0.0782 0.9589
vn -0.5700 0.0833 0.8174
vn 0.0123 0.0514 0.9986
vn 0.3179 -0.0002 0.9481
vn 0.5676 -0.0081 0.8232
vn -0.4948 0.4841 0.7217
vn -0.2431 0.4678 0.8497
vn -0.0056 0.4939 0.8695
vn 0.2588 0.4762 0.8404
vn 0.5079 0.4679 0.7233
vn 0.7070 -0.4692 0.5291
vn 0.8170 -0.5698 0.0890
vn 0.7200 -0.5698 -0.3961
vn 0.4587 -0.4850 -0.7446
vn 0.8191 0.0201 0.5733
vn 0.9904 0.0242 0.1360
vn 0.8954 0.0176 -0.4449
vn 0.5424 0.0003 -0.8401
vn 0.7138 0.4986 0.4919
vn 0.8185 0.5630 0.1141
vn 0.7396 0.5593 -0.3744
vn 0.4787 0.4893 -0.7290
vn 0.2088 -0.4663 -0.8597
vn 0.0015 -0.4865 -0.8737
vn -0.2903 -0.4843 -0.8253
vn -0.5766 -0.4848 -0.6577
vn 0.2333 -0.0165 -0.9723
vn -0.0080 -0.0070 -0.9999
vn -0.3187 0.0074 -0.9478
vn -0.6440 0.0025 -0.7650
vn 0.2076 0.4575 -0.8646
vn -0.0085 0.4705 -0.8824
vn -0.2712 0.4430 -0.8545
vn -0.5777 0.4492 -0.6815
vn -0.7633 -0.5346 -0.3627
vn -0.8378 -0.5451 0.0317
vn -0.7378 -0.5047 0.4483
vn -0.9134 -0.0063 -0.4070
vn -0.9975 0.0191 0.0677
vn -0.8720 0.0630 0.4855
vn -0.7845 0.5171 -0.3423
vn -0.8338 0.5455 0.0844
vn -0.7290 0.5139 0.4523
# 98 vertex normals

vt 0.1880 0.5736 0.0000
vt 0.1935 0.6220 0.0000
vt 0.1221 0.6233 0.0000
vt 0.1014 0.5732 0.0000
vt 0.3159 0.5894 0.0000
vt 0.2905 0.6329 0.0000
vt 0.3871 0.6549 0.0000
vt 0.4382 0.6241 0.0000
vt 0.4591 0.6839 0.0000
vt 0.5140 0.6636 0.0000
vt 0.1848 0.4461 0.0000
vt 0.1419 0.4998 0.0000
vt 0.0829 0.4251 0.0000
vt 0.1191 0.3881 0.0000
vt 0.3154 0.5120 0.0000
vt 0.2596 0.5712 0.0000
vt 0.3970 0.6064 0.0000
vt 0.4615 0.5500 0.0000
vt 0.4973 0.6098 0.0000
vt 0.5577 0.5608 0.0000
vt 0.1710 0.3507 0.0000
vt 0.2402 0.3905 0.0000
vt 0.3625 0.4413 0.0000
vt 0.4938 0.4794 0.0000
vt 0.5827 0.4945 0.0000
vt 0.2216 0.3218 0.0000
vt 0.2832 0.3522 0.0000
vt 0.3840 0.3882 0.0000
vt 0.4888 0.4164 0.0000
vt 0.5689 0.4334 0.0000
vt 0.1407 0.9029 0.0000
vt 0.0618 0.8913 0.0000
vt 0.0931 0.8453 0.0000
vt 0.1594 0.8508 0.0000
vt 0.2572 0.9151 0.0000
vt 0.2486 0.8593 0.0000
vt 0.3428 0.8666 0.0000
vt 0.3768 0.9176 0.0000
vt 0.4136 0.8677 0.0000
vt 0.4538 0.9093 0.0000
vt 0.1281 0.9763 0.0000
vt 0.0499 0.9562 0.0000
vt 0.2643 0.9948 0.0000
vt 0.4069 0.9882 0.0000
vt 0.4958 0.9644 0.0000
vt 0.2407 0.0736 0.0000
vt 0.1958 0.0298 0.0000
vt 0.2935 0.0014 0.0000
vt 0.3152 0.0633 0.0000
vt 0.4526 0.0121 0.0000
vt 0.4524 0.0853 0.0000
vt 0.5832 0.1330 0.0000
vt 0.6040 0.0727 0.0000
vt 0.6740 0.1831 0.0000
vt 0.6887 0.1210 0.0000
vt 0.2664 0.1166 0.0000
vt 0.3379 0.1153 0.0000
vt 0.4452 0.1387 0.0000
vt 0.5588 0.1822 0.0000
vt 0.6313 0.2132 0.0000
vt 0.1585 0.6669 0.0000
vt 0.0817 0.6636 0.0000
vt 0.2698 0.6747 0.0000
vt 0.3806 0.6987 0.0000
vt 0.4606 0.7233 0.0000
vt 0.1339 0.7282 0.0000
vt 0.0555 0.7266 0.0000
vt 0.2487 0.7365 0.0000
vt 0.3688 0.7586 0.0000
vt 0.4499 0.7765 0.0000
vt 0.0621 0.7947 0.0000
vt 0.1381 0.7972 0.0000
vt 0.2441 0.8058 0.0000
vt 0.3543 0.8198 0.0000
vt 0.4332 0.8284 0.0000
vt 0.5400 0.7244 0.0000
vt 0.5833 0.6578 0.0000
vt 0.6418 0.7243 0.0000
vt 0.6354 0.5515 0.0000
vt 0.6553 0.4664 0.0000
vt 0.6212 0.4014 0.0000
vt 0.5231 0.7954 0.0000
vt 0.6045 0.8226 0.0000
vt 0.6760 0.7649 0.0000
vt 0.6489 0.8780 0.0000
vt 0.6587 0.3501 0.0000
vt 0.7104 0.4146 0.0000
vt 0.4944 0.8635 0.0000
vt 0.5601 0.9076 0.0000
vt 0.5976 0.9773 0.0000
vt 0.6806 0.9563 0.0000
vt 0.6607 0.9974 0.0000
vt 0.5493 0.9988 0.0000
vt 0.7127 0.2387 0.0000
vt 0.6583 0.2803 0.0000
vt 0.5299 0.3755 0.0000
vt 0.4012 0.3379 0.0000
vt 0.2842 0.2974 0.0000
vt 0.2187 0.2759 0.0000
vt 0.5637 0.3113 0.0000
vt 0.4215 0.2662 0.0000
vt 0.2943 0.2286 0.0000
vt 0.2267 0.2147 0.0000
vt 0.5637 0.2378 0.0000
vt 0.4353 0.1931 0.0000
vt 0.3116 0.1648 0.0000
vt 0.2412 0.1567 0.0000
vt 0.1606 0.2917 0.0000
vt 0.0866 0.3150 0.0000
vt 0.0251 0.3408 0.0000
vt 0.0402 0.6152 0.0000
vt 0.1688 0.2042 0.0000
vt 0.1007 0.2115 0.0000
vt 0.0306 0.2276 0.0000
vt 0.0011 0.6811 0.0000
vt 0.1922 0.1271 0.0000
vt 0.1287 0.1084 0.0000
vt 0.0749 0.0935 0.0000
vt 0.0013 0.1663 0.0000
vt 0.0406 0.0954 0.0000
vt 0.1302 0.0072 0.0000
vt 0.0171 0.8474 0.0000
# 122 texture coords

g Box001
f 1/1/1 2/2/2 3/3/3 
f 3/3/3 4/4/4 1/1/1 
f 5/5/5 6/6/6 2/2/2 
f 2/2/2 1/1/1 5/5/5 
f 7/7/7 6/6/6 5/5/5 
f 5/5/5 8/8/8 7/7/7 
f 9/9/9 7/7/7 8/8/8 
f 8/8/8 10/10/10 9/9/9 
f 11/11/11 1/12/1 4/13/4 
f 4/13/4 12/14/12 11/11/11 
f 13/15/13 5/16/5 1/12/1 
f 1/12/1 11/11/11 13/15/13 
f 8/17/8 5/16/5 13/15/13 
f 13/15/13 14/18/14 8/17/8 
f 10/19/10 8/17/8 14/18/14 
f 14/18/14 15/20/15 10/19/10 
f 11/11/11 12/14/12 16/21/16 
f 16/21/16 17/22/17 11/11/11 
f 13/15/13 11/11/11 17/22/17 
f 17/22/17 18/23/18 13/15/13 
f 19/24/19 14/18/14 13/15/13 
f 13/15/13 18/23/18 19/24/19 
f 20/25/20 15/20/15 14/18/14 
f 14/18/14 19/24/19 20/25/20 
f 17/22/17 16/21/16 21/26/21 
f 21/26/21 22/27/22 17/22/17 
f 18/23/18 17/22/17 22/27/22 
f 22/27/22 23/28/23 18/23/18 
f 24/29/24 19/24/19 18/23/18 
f 18/23/18 23/28/23 24/29/24 
f 25/30/25 20/25/20 19/24/19 
f 19/24/19 24/29/24 25/30/25 
f 26/31/26 27/32/27 28/33/28 
f 28/33/28 29/34/29 26/31/26 
f 30/35/30 26/31/26 29/34/29 
f 29/34/29 31/36/31 30/35/30 
f 30/35/30 31/36/31 32/37/32 
f 32/37/32 33/38/33 30/35/30 
f 33/38/33 32/37/32 34/39/34 
f 34/39/34 35/40/35 33/38/33 
f 36/41/36 37/42/37 27/32/27 
f 27/32/27 26/31/26 36/41/36 
f 38/43/38 36/41/36 26/31/26 
f 26/31/26 30/35/30 38/43/38 
f 38/43/38 30/35/30 33/38/33 
f 33/38/33 39/44/39 38/43/38 
f 39/44/39 33/38/33 35/40/35 
f 35/40/35 40/45/40 39/44/39 
f 41/46/41 37/47/37 36/48/36 
f 36/48/36 42/49/42 41/46/41 
f 42/49/42 36/48/36 38/50/38 
f 38/50/38 43/51/43 42/49/42 
f 44/52/44 43/51/43 38/50/38 
f 38/50/38 39/53/39 44/52/44 
f 45/54/45 44/52/44 39/53/39 
f 39/53/39 40/55/40 45/54/45 
f 46/56/46 41/46/41 42/49/42 
f 42/49/42 47/57/47 46/56/46 
f 47/57/47 42/49/42 43/51/43 
f 43/51/43 48/58/48 47/57/47 
f 49/59/49 48/58/48 43/51/43 
f 43/51/43 44/52/44 49/59/49 
f 50/60/50 49/59/49 44/52/44 
f 44/52/44 45/54/45 50/60/50 
f 51/61/51 52/62/52 3/3/3 
f 3/3/3 2/2/2 51/61/51 
f 53/63/53 51/61/51 2/2/2 
f 2/2/2 6/6/6 53/63/53 
f 54/64/54 53/63/53 6/6/6 
f 6/6/6 7/7/7 54/64/54 
f 54/64/54 7/7/7 9/9/9 
f 9/9/9 55/65/55 54/64/54 
f 56/66/56 57/67/57 52/62/52 
f 52/62/52 51/61/51 56/66/56 
f 58/68/58 56/66/56 51/61/51 
f 51/61/51 53/63/53 58/68/58 
f 58/68/58 53/63/53 54/64/54 
f 54/64/54 59/69/59 58/68/58 
f 59/69/59 54/64/54 55/65/55 
f 55/65/55 60/70/60 59/69/59 
f 61/71/61 57/67/57 56/66/56 
f 56/66/56 62/72/62 61/71/61 
f 62/72/62 56/66/56 58/68/58 
f 58/68/58 63/73/63 62/72/62 
f 63/73/63 58/68/58 59/69/59 
f 59/69/59 64/74/64 63/73/63 
f 65/75/65 64/74/64 59/69/59 
f 59/69/59 60/70/60 65/75/65 
f 28/33/28 61/71/61 62/72/62 
f 62/72/62 29/34/29 28/33/28 
f 29/34/29 62/72/62 63/73/63 
f 63/73/63 31/36/31 29/34/29 
f 31/36/31 63/73/63 64/74/64 
f 64/74/64 32/37/32 31/36/31 
f 34/39/34 32/37/32 64/74/64 
f 64/74/64 65/75/65 34/39/34 
f 55/65/55 9/9/9 10/10/10 
f 10/10/10 66/76/66 55/65/55 
f 66/76/66 10/10/10 15/77/15 
f 15/77/15 67/78/67 66/76/66 
f 67/79/67 15/20/15 20/25/20 
f 20/25/20 68/80/68 67/79/67 
f 69/81/69 68/80/68 20/25/20 
f 20/25/20 25/30/25 69/81/69 
f 60/70/60 55/65/55 66/76/66 
f 66/76/66 70/82/70 60/70/60 
f 70/82/70 66/76/66 67/78/67 
f 67/78/67 71/83/71 70/82/70 
f 71/83/71 67/78/67 68/84/68 
f 68/84/68 72/85/72 71/83/71 
f 73/86/73 72/87/72 68/80/68 
f 68/80/68 69/81/69 73/86/73 
f 74/88/74 65/75/65 60/70/60 
f 60/70/60 70/82/70 74/88/74 
f 75/89/75 74/88/74 70/82/70 
f 70/82/70 71/83/71 75/89/75 
f 75/89/75 71/83/71 72/85/72 
f 72/85/72 76/90/76 75/89/75 
f 76/90/76 72/85/72 73/91/73 
f 73/91/73 77/92/77 76/90/76 
f 35/40/35 34/39/34 65/75/65 
f 65/75/65 74/88/74 35/40/35 
f 40/45/40 35/40/35 74/88/74 
f 74/88/74 75/89/75 40/45/40 
f 45/93/45 40/45/40 75/89/75 
f 75/89/75 76/90/76 45/93/45 
f 45/54/45 76/94/76 77/95/77 
f 77/95/77 50/60/50 45/54/45 
f 78/96/78 69/81/69 25/30/25 
f 25/30/25 24/29/24 78/96/78 
f 79/97/79 78/96/78 24/29/24 
f 24/29/24 23/28/23 79/97/79 
f 79/97/79 23/28/23 22/27/22 
f 22/27/22 80/98/80 79/97/79 
f 80/98/80 22/27/22 21/26/21 
f 21/26/21 81/99/81 80/98/80 
f 82/100/82 73/86/73 69/81/69 
f 69/81/69 78/96/78 82/100/82 
f 83/101/83 82/100/82 78/96/78 
f 78/96/78 79/97/79 83/101/83 
f 83/101/83 79/97/79 80/98/80 
f 80/98/80 84/102/84 83/101/83 
f 84/102/84 80/98/80 81/99/81 
f 81/99/81 85/103/85 84/102/84 
f 77/95/77 73/86/73 82/100/82 
f 82/100/82 86/104/86 77/95/77 
f 86/104/86 82/100/82 83/101/83 
f 83/101/83 87/105/87 86/104/86 
f 88/106/88 87/105/87 83/101/83 
f 83/101/83 84/102/84 88/106/88 
f 89/107/89 88/106/88 84/102/84 
f 84/102/84 85/103/85 89/107/89 
f 50/60/50 77/95/77 86/104/86 
f 86/104/86 49/59/49 50/60/50 
f 49/59/49 86/104/86 87/105/87 
f 87/105/87 48/58/48 49/59/49 
f 47/57/47 48/58/48 87/105/87 
f 87/105/87 88/106/88 47/57/47 
f 46/56/46 47/57/47 88/106/88 
f 88/106/88 89/107/89 46/56/46 
f 90/108/90 81/99/81 21/26/21 
f 21/26/21 16/21/16 90/108/90 
f 90/108/90 16/21/16 12/14/12 
f 12/14/12 91/109/91 90/108/90 
f 92/110/92 91/109/91 12/14/12 
f 12/14/12 4/13/4 92/110/92 
f 52/62/52 92/111/92 4/4/4 
f 4/4/4 3/3/3 52/62/52 
f 85/103/85 81/99/81 90/108/90 
f 90/108/90 93/112/93 85/103/85 
f 94/113/94 93/112/93 90/108/90 
f 90/108/90 91/109/91 94/113/94 
f 95/114/95 94/113/94 91/109/91 
f 91/109/91 92/110/92 95/114/95 
f 57/67/57 95/115/95 92/111/92 
f 92/111/92 52/62/52 57/67/57 
f 96/116/96 89/107/89 85/103/85 
f 85/103/85 93/112/93 96/116/96 
f 96/116/96 93/112/93 94/113/94 
f 94/113/94 97/117/97 96/116/96 
f 98/118/98 97/117/97 94/113/94 
f 94/113/94 95/114/95 98/118/98 
f 98/118/98 95/114/95 57/119/57 
f 57/119/57 61/120/61 98/118/98 
f 41/46/41 46/56/46 89/107/89 
f 89/107/89 96/116/96 41/46/41 
f 37/47/37 41/46/41 96/116/96 
f 96/116/96 97/117/97 37/47/37 
f 37/47/37 97/117/97 98/118/98 
f 98/118/98 27/121/27 37/47/37 
f 27/32/27 98/122/98 61/71/61 
f 61/71/61 28/33/28 27/32/27 
# 192 faces

